<svg xmlns="http://www.w3.org/2000/svg" version="1.1" xmlns:xlink="http://www.w3.org/1999/xlink" xmlns:svgjs="http://svgjs.dev/svgjs" width="1500" height="1500" viewBox="0 0 1500 1500"><rect width="1500" height="1500" fill="#000000"></rect><g transform="matrix(0.6666666666666666,0,0,0.6666666666666666,249.39393939393938,438.58569500674764)"><svg viewBox="0 0 396 247" data-background-color="#000000" preserveAspectRatio="xMidYMid meet" height="935" width="1500" xmlns="http://www.w3.org/2000/svg" xmlns:xlink="http://www.w3.org/1999/xlink"><g id="tight-bounds" transform="matrix(1,0,0,1,0.2400000000000091,-0.09999999999999432)"><svg viewBox="0 0 395.52 247.2" height="247.2" width="395.52"><rect width="395.52" height="247.2" fill="#ffffff" mask="url(#e31937a9-6f5b-41ee-aacb-acea2fd7a728)" data-fill-palette-color="tertiary"></rect><g><svg></svg></g><g><svg viewBox="0 0 395.52 247.2" height="247.2" width="395.52"><g transform="matrix(1,0,0,1,75.54432,108.37211222992391)"><svg viewBox="0 0 244.43135999999998 30.455775540152153" height="30.455775540152153" width="244.43135999999998"><g><svg viewBox="0 0 244.43135999999998 30.455775540152153" height="30.455775540152153" width="244.43135999999998"><g><svg viewBox="0 0 244.43135999999998 30.455775540152153" height="30.455775540152153" width="244.43135999999998"><g><svg viewBox="0 0 244.43135999999998 30.455775540152153" height="30.455775540152153" width="244.43135999999998"><g id="textblocktransform"><svg viewBox="0 0 244.43135999999998 30.455775540152153" height="30.455775540152153" width="244.43135999999998" id="textblock"><g><svg viewBox="0 0 244.43135999999998 30.455775540152153" height="30.455775540152153" width="244.43135999999998"><g transform="matrix(1,0,0,1,0,0)"><svg width="244.43135999999998" viewBox="3 -35.5 288.79 35.99" height="30.455775540152153" data-palette-color="url(#0ff061c5-202a-4787-b829-d5e40fed848d)"></svg></g></svg></g></svg></g></svg></g><g></g></svg></g></svg></g></svg></g><g><path d="M77.618 101.182A122.216 122.216 0 0 1 317.902 101.182L315.156 101.182A119.469 119.469 0 0 0 80.364 101.182L77.618 101.182M77.618 146.018A122.216 122.216 0 0 0 317.902 146.018L315.156 146.018A119.469 119.469 0 0 1 80.364 146.018L77.618 146.018" fill="#ffffff" stroke="transparent" data-fill-palette-color="tertiary"></path></g></svg></g><defs></defs><mask id="511ca17d-61b4-4a84-97a3-37d93be87dc7"><g id="SvgjsG1077"><svg viewBox="0 0 395.52 247.2" height="247.2" width="395.52"><g><svg></svg></g><g><svg viewBox="0 0 395.52 247.2" height="247.2" width="395.52"><g transform="matrix(1,0,0,1,75.54432,108.37211222992391)"><svg viewBox="0 0 244.43135999999998 30.455775540152153" height="30.455775540152153" width="244.43135999999998"><g><svg viewBox="0 0 244.43135999999998 30.455775540152153" height="30.455775540152153" width="244.43135999999998"><g><svg viewBox="0 0 244.43135999999998 30.455775540152153" height="30.455775540152153" width="244.43135999999998"><g><svg viewBox="0 0 244.43135999999998 30.455775540152153" height="30.455775540152153" width="244.43135999999998"><g id="SvgjsG1076"><svg viewBox="0 0 244.43135999999998 30.455775540152153" height="30.455775540152153" width="244.43135999999998" id="SvgjsSvg1075"><g><svg viewBox="0 0 244.43135999999998 30.455775540152153" height="30.455775540152153" width="244.43135999999998"><g transform="matrix(1,0,0,1,0,0)"><svg width="244.43135999999998" viewBox="3 -35.5 288.79 35.99" height="30.455775540152153" data-palette-color="url(#0ff061c5-202a-4787-b829-d5e40fed848d)"><path d="M23.19-9.16L23.19-8.11Q23.19-6.32 22.47-4.76 21.75-3.2 20.54-2.03 19.34-0.85 17.74-0.18 16.14 0.49 14.36 0.49L14.36 0.49 11.84 0.49Q10.06 0.49 8.46-0.18 6.86-0.85 5.65-2.03 4.44-3.2 3.72-4.76 3-6.32 3-8.11L3-8.11 3-9.5 6.15-10.01 6.15-8.11Q6.15-6.93 6.63-5.92 7.1-4.91 7.91-4.14 8.72-3.37 9.78-2.93 10.84-2.49 12.01-2.49L12.01-2.49 14.21-2.49Q15.38-2.49 16.43-2.93 17.48-3.37 18.29-4.14 19.09-4.91 19.57-5.92 20.04-6.93 20.04-8.11L20.04-8.11 20.04-9.16Q20.04-10.96 19.34-12.16 18.63-13.35 17.46-14.2 16.28-15.04 14.81-15.63 13.33-16.21 11.77-16.8 10.21-17.38 8.73-18.09 7.25-18.8 6.08-19.86 4.91-20.92 4.2-22.46 3.49-24 3.49-26.25L3.49-26.25 3.49-26.9Q3.49-28.69 4.16-30.25 4.83-31.81 6.01-32.98 7.18-34.16 8.75-34.83 10.33-35.5 12.11-35.5L12.11-35.5 14.36-35.5Q16.14-35.5 17.7-34.83 19.26-34.16 20.43-32.98 21.61-31.81 22.28-30.25 22.95-28.69 22.95-26.9L22.95-26.9 22.95-26 19.8-25.49 19.8-26.9Q19.8-28.08 19.36-29.09 18.92-30.1 18.16-30.86 17.41-31.62 16.39-32.06 15.38-32.5 14.21-32.5L14.21-32.5 12.26-32.5Q11.08-32.5 10.07-32.06 9.06-31.62 8.29-30.86 7.52-30.1 7.08-29.09 6.64-28.08 6.64-26.9L6.64-26.9 6.64-26.25Q6.64-24.56 7.35-23.41 8.06-22.27 9.23-21.45 10.4-20.63 11.88-20.03 13.35-19.43 14.92-18.81 16.48-18.19 17.96-17.44 19.43-16.7 20.61-15.61 21.78-14.53 22.49-12.96 23.19-11.4 23.19-9.16L23.19-9.16ZM45.65 0L42.65 0 42.65-18.31Q42.65-19.21 42.31-20.01 41.97-20.8 41.38-21.39 40.79-21.97 40-22.31 39.21-22.66 38.3-22.66L38.3-22.66 36.3-22.66Q35.4-22.66 34.6-22.31 33.81-21.97 33.23-21.39 32.64-20.8 32.3-20.01 31.96-19.21 31.96-18.31L31.96-18.31 31.96 0 28.95 0 28.95-35.01 31.96-35.01 31.96-22.9Q32.98-24.12 34.42-24.8 35.86-25.49 37.55-25.49L37.55-25.49 38.3-25.49Q39.82-25.49 41.16-24.91 42.5-24.34 43.5-23.34 44.5-22.34 45.08-21 45.65-19.65 45.65-18.14L45.65-18.14 45.65 0ZM62.01-22.14L59-22.14Q58.1-22.14 57.31-21.8 56.51-21.46 55.93-20.87 55.34-20.29 55-19.49 54.66-18.7 54.66-17.8L54.66-17.8 54.66 0 51.66 0 51.66-25 52.66-25 54.29-22.46Q55.32-23.85 56.87-24.67 58.42-25.49 60.25-25.49L60.25-25.49 62.01-25.49 62.01-22.14ZM70.26-31.01L66.76-31.01 66.76-35.01 70.26-35.01 70.26-31.01ZM70.01 0L67.01 0 67.01-25 70.01-25 70.01 0ZM93.72 0L92.71 0 91.05-2.54Q90.03-1.15 88.49-0.33 86.95 0.49 85.12 0.49L85.12 0.49 84.37 0.49Q82.85 0.49 81.51-0.09 80.17-0.66 79.16-1.66 78.16-2.66 77.59-4 77.02-5.35 77.02-6.86L77.02-6.86 77.02-18.14Q77.02-19.65 77.59-21 78.16-22.34 79.16-23.34 80.17-24.34 81.51-24.91 82.85-25.49 84.37-25.49L84.37-25.49 85.12-25.49Q86.81-25.49 88.25-24.8 89.69-24.12 90.71-22.9L90.71-22.9 90.71-35.01 93.72-35.01 93.72 0ZM90.71-6.69L90.71-18.31Q90.71-19.21 90.37-20.01 90.03-20.8 89.44-21.39 88.86-21.97 88.06-22.31 87.27-22.66 86.37-22.66L86.37-22.66 84.37-22.66Q83.46-22.66 82.67-22.31 81.87-21.97 81.29-21.39 80.7-20.8 80.36-20.01 80.02-19.21 80.02-18.31L80.02-18.31 80.02-6.69Q80.02-5.79 80.36-4.99 80.7-4.2 81.29-3.61 81.87-3.03 82.67-2.69 83.46-2.34 84.37-2.34L84.37-2.34 86.37-2.34Q87.27-2.34 88.06-2.69 88.86-3.03 89.44-3.61 90.03-4.2 90.37-4.99 90.71-5.79 90.71-6.69L90.71-6.69ZM116.42 0L113.42 0 113.42-18.31Q113.42-19.21 113.07-20.01 112.73-20.8 112.15-21.39 111.56-21.97 110.77-22.31 109.97-22.66 109.07-22.66L109.07-22.66 107.07-22.66Q106.16-22.66 105.37-22.31 104.58-21.97 103.99-21.39 103.41-20.8 103.06-20.01 102.72-19.21 102.72-18.31L102.72-18.31 102.72 0 99.72 0 99.72-35.01 102.72-35.01 102.72-22.9Q103.75-24.12 105.19-24.8 106.63-25.49 108.31-25.49L108.31-25.49 109.07-25.49Q110.58-25.49 111.93-24.91 113.27-24.34 114.27-23.34 115.27-22.34 115.84-21 116.42-19.65 116.42-18.14L116.42-18.14 116.42 0ZM139.12 0L138.12 0 136.46-2.49Q135.43-1.15 133.9-0.33 132.36 0.49 130.53 0.49L130.53 0.49 129.77 0.49Q128.26 0.49 126.91-0.09 125.57-0.66 124.57-1.66 123.57-2.66 123-4 122.42-5.35 122.42-6.86L122.42-6.86 122.42-7.1Q122.42-8.62 123-9.96 123.57-11.3 124.57-12.3 125.57-13.31 126.91-13.88 128.26-14.45 129.77-14.45L129.77-14.45 136.12-14.45 136.12-18.31Q136.12-19.21 135.78-20.01 135.43-20.8 134.85-21.39 134.26-21.97 133.47-22.31 132.68-22.66 131.77-22.66L131.77-22.66 130.01-22.66Q129.11-22.66 128.32-22.31 127.52-21.97 126.94-21.39 126.35-20.8 126.01-20.01 125.67-19.21 125.67-18.31L125.67-18.31 125.67-17.41 122.67-17.9 122.67-18.14Q122.67-19.65 123.24-21 123.81-22.34 124.81-23.34 125.82-24.34 127.16-24.91 128.5-25.49 130.01-25.49L130.01-25.49 131.77-25.49Q133.29-25.49 134.63-24.91 135.97-24.34 136.97-23.34 137.97-22.34 138.55-21 139.12-19.65 139.12-18.14L139.12-18.14 139.12 0ZM136.12-6.69L136.12-12.11 129.77-12.11Q128.87-12.11 128.07-11.77 127.28-11.43 126.69-10.83 126.11-10.23 125.77-9.44 125.42-8.64 125.42-7.74L125.42-7.74 125.42-6.69Q125.42-5.79 125.77-4.99 126.11-4.2 126.69-3.61 127.28-3.03 128.07-2.69 128.87-2.34 129.77-2.34L129.77-2.34 131.77-2.34Q132.68-2.34 133.47-2.69 134.26-3.03 134.85-3.61 135.43-4.2 135.78-4.99 136.12-5.79 136.12-6.69L136.12-6.69ZM155.48-22.14L152.47-22.14Q151.57-22.14 150.78-21.8 149.98-21.46 149.4-20.87 148.81-20.29 148.47-19.49 148.13-18.7 148.13-17.8L148.13-17.8 148.13 0 145.12 0 145.12-25 146.13-25 147.76-22.46Q148.79-23.85 150.34-24.67 151.89-25.49 153.72-25.49L153.72-25.49 155.48-25.49 155.48-22.14ZM192.97 0L189.06 0 175.88-17.5 189.06-35.01 192.97-35.01 179.52-17.5 192.97 0ZM175.12 0L171.97 0 171.97-35.01 175.12-35.01 175.12 0ZM213.67 0L210.67 0 210.67-18.31Q210.67-19.21 210.33-20.01 209.98-20.8 209.4-21.39 208.81-21.97 208.02-22.31 207.23-22.66 206.32-22.66L206.32-22.66 204.32-22.66Q203.42-22.66 202.62-22.31 201.83-21.97 201.24-21.39 200.66-20.8 200.32-20.01 199.98-19.21 199.98-18.31L199.98-18.31 199.98 0 196.97 0 196.97-35.01 199.98-35.01 199.98-22.9Q201-24.12 202.44-24.8 203.88-25.49 205.57-25.49L205.57-25.49 206.32-25.49Q207.84-25.49 209.18-24.91 210.52-24.34 211.52-23.34 212.52-22.34 213.1-21 213.67-19.65 213.67-18.14L213.67-18.14 213.67 0ZM236.37 0L235.37 0 233.71-2.49Q232.69-1.15 231.15-0.33 229.61 0.49 227.78 0.49L227.78 0.49 227.02 0.49Q225.51 0.49 224.17-0.09 222.82-0.66 221.82-1.66 220.82-2.66 220.25-4 219.67-5.35 219.67-6.86L219.67-6.86 219.67-7.1Q219.67-8.62 220.25-9.96 220.82-11.3 221.82-12.3 222.82-13.31 224.17-13.88 225.51-14.45 227.02-14.45L227.02-14.45 233.37-14.45 233.37-18.31Q233.37-19.21 233.03-20.01 232.69-20.8 232.1-21.39 231.52-21.97 230.72-22.31 229.93-22.66 229.03-22.66L229.03-22.66 227.27-22.66Q226.36-22.66 225.57-22.31 224.78-21.97 224.19-21.39 223.61-20.8 223.26-20.01 222.92-19.21 222.92-18.31L222.92-18.31 222.92-17.41 219.92-17.9 219.92-18.14Q219.92-19.65 220.49-21 221.07-22.34 222.07-23.34 223.07-24.34 224.41-24.91 225.75-25.49 227.27-25.49L227.27-25.49 229.03-25.49Q230.54-25.49 231.88-24.91 233.22-24.34 234.23-23.34 235.23-22.34 235.8-21 236.37-19.65 236.37-18.14L236.37-18.14 236.37 0ZM233.37-6.69L233.37-12.11 227.02-12.11Q226.12-12.11 225.33-11.77 224.53-11.43 223.95-10.83 223.36-10.23 223.02-9.44 222.68-8.64 222.68-7.74L222.68-7.74 222.68-6.69Q222.68-5.79 223.02-4.99 223.36-4.2 223.95-3.61 224.53-3.03 225.33-2.69 226.12-2.34 227.02-2.34L227.02-2.34 229.03-2.34Q229.93-2.34 230.72-2.69 231.52-3.03 232.1-3.61 232.69-4.2 233.03-4.99 233.37-5.79 233.37-6.69L233.37-6.69ZM259.08 0L256.07 0 256.07-18.31Q256.07-19.21 255.73-20.01 255.39-20.8 254.8-21.39 254.22-21.97 253.42-22.31 252.63-22.66 251.73-22.66L251.73-22.66 249.73-22.66Q248.82-22.66 248.03-22.31 247.24-21.97 246.65-21.39 246.06-20.8 245.72-20.01 245.38-19.21 245.38-18.31L245.38-18.31 245.38 0 242.38 0 242.38-25 243.38-25 245.01-22.46Q246.04-23.85 247.59-24.67 249.14-25.49 250.97-25.49L250.97-25.49 251.73-25.49Q253.24-25.49 254.58-24.91 255.93-24.34 256.93-23.34 257.93-22.34 258.5-21 259.08-19.65 259.08-18.14L259.08-18.14 259.08 0ZM281.78 0L280.78 0 279.12-2.49Q278.09-1.15 276.55-0.33 275.02 0.49 273.19 0.49L273.19 0.49 272.43 0.49Q270.91 0.49 269.57-0.09 268.23-0.66 267.23-1.66 266.23-2.66 265.65-4 265.08-5.35 265.08-6.86L265.08-6.86 265.08-7.1Q265.08-8.62 265.65-9.96 266.23-11.3 267.23-12.3 268.23-13.31 269.57-13.88 270.91-14.45 272.43-14.45L272.43-14.45 278.78-14.45 278.78-18.31Q278.78-19.21 278.43-20.01 278.09-20.8 277.51-21.39 276.92-21.97 276.13-22.31 275.33-22.66 274.43-22.66L274.43-22.66 272.67-22.66Q271.77-22.66 270.98-22.31 270.18-21.97 269.6-21.39 269.01-20.8 268.67-20.01 268.33-19.21 268.33-18.31L268.33-18.31 268.33-17.41 265.32-17.9 265.32-18.14Q265.32-19.65 265.9-21 266.47-22.34 267.47-23.34 268.47-24.34 269.82-24.91 271.16-25.49 272.67-25.49L272.67-25.49 274.43-25.49Q275.94-25.49 277.29-24.91 278.63-24.34 279.63-23.34 280.63-22.34 281.21-21 281.78-19.65 281.78-18.14L281.78-18.14 281.78 0ZM278.78-6.69L278.78-12.11 272.43-12.11Q271.53-12.11 270.73-11.77 269.94-11.43 269.35-10.83 268.77-10.23 268.42-9.44 268.08-8.64 268.08-7.74L268.08-7.74 268.08-6.69Q268.08-5.79 268.42-4.99 268.77-4.2 269.35-3.61 269.94-3.03 270.73-2.69 271.53-2.34 272.43-2.34L272.43-2.34 274.43-2.34Q275.33-2.34 276.13-2.69 276.92-3.03 277.51-3.61 278.09-4.2 278.43-4.99 278.78-5.79 278.78-6.69L278.78-6.69ZM291.79 0L288.78 0 288.78-35.01 291.79-35.01 291.79 0Z" opacity="1" transform="matrix(1,0,0,1,0,0)" fill="white" class="wordmark-text-0" id="SvgjsPath1074"></path></svg></g></svg></g></svg></g></svg></g><g></g></svg></g></svg></g></svg></g><g><path d="M77.618 101.182A122.216 122.216 0 0 1 317.902 101.182L315.156 101.182A119.469 119.469 0 0 0 80.364 101.182L77.618 101.182M77.618 146.018A122.216 122.216 0 0 0 317.902 146.018L315.156 146.018A119.469 119.469 0 0 1 80.364 146.018L77.618 146.018" fill="black" stroke="transparent"></path></g></svg></g><defs><mask></mask></defs></svg><rect width="395.52" height="247.2" fill="black" stroke="none" visibility="hidden"></rect></g></mask><linearGradient x1="0.054" x2="0.941" y1="0.5" y2="0.5" id="0ff061c5-202a-4787-b829-d5e40fed848d"><stop stop-color="#26282a" offset="0"></stop><stop stop-color="#9e9fa0" offset="0.498"></stop><stop stop-color="#26282a" offset="1"></stop></linearGradient><rect width="395.52" height="247.2" fill="#ffffff" mask="url(#511ca17d-61b4-4a84-97a3-37d93be87dc7)" data-fill-palette-color="primary"></rect><mask id="e31937a9-6f5b-41ee-aacb-acea2fd7a728"><g id="SvgjsG1100"><svg viewBox="0 0 395.52 247.2" height="247.2" width="395.52"><g><svg></svg></g><g><svg viewBox="0 0 395.52 247.2" height="247.2" width="395.52"><g transform="matrix(1,0,0,1,75.54432,108.37211222992391)"><svg viewBox="0 0 244.43135999999998 30.455775540152153" height="30.455775540152153" width="244.43135999999998"><g><svg viewBox="0 0 244.43135999999998 30.455775540152153" height="30.455775540152153" width="244.43135999999998"><g><svg viewBox="0 0 244.43135999999998 30.455775540152153" height="30.455775540152153" width="244.43135999999998"><g><svg viewBox="0 0 244.43135999999998 30.455775540152153" height="30.455775540152153" width="244.43135999999998"><g id="SvgjsG1099"><svg viewBox="0 0 244.43135999999998 30.455775540152153" height="30.455775540152153" width="244.43135999999998" id="SvgjsSvg1098"><g><svg viewBox="0 0 244.43135999999998 30.455775540152153" height="30.455775540152153" width="244.43135999999998"><g transform="matrix(1,0,0,1,0,0)"><svg width="244.43135999999998" viewBox="3 -35.5 288.79 35.99" height="30.455775540152153" data-palette-color="url(#0ff061c5-202a-4787-b829-d5e40fed848d)"></svg></g></svg></g></svg></g></svg></g><g></g></svg></g></svg></g></svg></g><g><path d="M77.618 101.182A122.216 122.216 0 0 1 317.902 101.182L315.156 101.182A119.469 119.469 0 0 0 80.364 101.182L77.618 101.182M77.618 146.018A122.216 122.216 0 0 0 317.902 146.018L315.156 146.018A119.469 119.469 0 0 1 80.364 146.018L77.618 146.018" fill="white" stroke="transparent"></path></g></svg></g><defs><mask></mask></defs><mask><g id="SvgjsG1097"><svg viewBox="0 0 395.52 247.2" height="247.2" width="395.52"><g><svg></svg></g><g><svg viewBox="0 0 395.52 247.2" height="247.2" width="395.52"><g transform="matrix(1,0,0,1,75.54432,108.37211222992391)"><svg viewBox="0 0 244.43135999999998 30.455775540152153" height="30.455775540152153" width="244.43135999999998"><g><svg viewBox="0 0 244.43135999999998 30.455775540152153" height="30.455775540152153" width="244.43135999999998"><g><svg viewBox="0 0 244.43135999999998 30.455775540152153" height="30.455775540152153" width="244.43135999999998"><g><svg viewBox="0 0 244.43135999999998 30.455775540152153" height="30.455775540152153" width="244.43135999999998"><g id="SvgjsG1096"><svg viewBox="0 0 244.43135999999998 30.455775540152153" height="30.455775540152153" width="244.43135999999998" id="SvgjsSvg1095"><g><svg viewBox="0 0 244.43135999999998 30.455775540152153" height="30.455775540152153" width="244.43135999999998"><g transform="matrix(1,0,0,1,0,0)"><svg width="244.43135999999998" viewBox="3 -35.5 288.79 35.99" height="30.455775540152153" data-palette-color="url(#0ff061c5-202a-4787-b829-d5e40fed848d)"><path d="M23.19-9.16L23.19-8.11Q23.19-6.32 22.47-4.76 21.75-3.2 20.54-2.03 19.34-0.85 17.74-0.18 16.14 0.49 14.36 0.49L14.36 0.49 11.84 0.49Q10.06 0.49 8.46-0.18 6.86-0.85 5.65-2.03 4.44-3.2 3.72-4.76 3-6.32 3-8.11L3-8.11 3-9.5 6.15-10.01 6.15-8.11Q6.15-6.93 6.63-5.92 7.1-4.91 7.91-4.14 8.72-3.37 9.78-2.93 10.84-2.49 12.01-2.49L12.01-2.49 14.21-2.49Q15.38-2.49 16.43-2.93 17.48-3.37 18.29-4.14 19.09-4.91 19.57-5.92 20.04-6.93 20.04-8.11L20.04-8.11 20.04-9.16Q20.04-10.96 19.34-12.16 18.63-13.35 17.46-14.2 16.28-15.04 14.81-15.63 13.33-16.21 11.77-16.8 10.21-17.38 8.73-18.09 7.25-18.8 6.08-19.86 4.91-20.92 4.2-22.46 3.49-24 3.49-26.25L3.49-26.25 3.49-26.9Q3.49-28.69 4.16-30.25 4.83-31.81 6.01-32.98 7.18-34.16 8.75-34.83 10.33-35.5 12.11-35.5L12.11-35.5 14.36-35.5Q16.14-35.5 17.7-34.83 19.26-34.16 20.43-32.98 21.61-31.81 22.28-30.25 22.95-28.69 22.95-26.9L22.95-26.9 22.95-26 19.8-25.49 19.8-26.9Q19.8-28.08 19.36-29.09 18.92-30.1 18.16-30.86 17.41-31.62 16.39-32.06 15.38-32.5 14.21-32.5L14.21-32.5 12.26-32.5Q11.08-32.5 10.07-32.06 9.06-31.62 8.29-30.86 7.52-30.1 7.08-29.09 6.64-28.08 6.64-26.9L6.64-26.9 6.64-26.25Q6.64-24.56 7.35-23.41 8.06-22.27 9.23-21.45 10.4-20.63 11.88-20.03 13.35-19.43 14.92-18.81 16.48-18.19 17.96-17.44 19.43-16.7 20.61-15.61 21.78-14.53 22.49-12.96 23.19-11.4 23.19-9.16L23.19-9.16ZM45.65 0L42.65 0 42.65-18.31Q42.65-19.21 42.31-20.01 41.97-20.8 41.38-21.39 40.79-21.97 40-22.31 39.21-22.66 38.3-22.66L38.3-22.66 36.3-22.66Q35.4-22.66 34.6-22.31 33.81-21.97 33.23-21.39 32.64-20.8 32.3-20.01 31.96-19.21 31.96-18.31L31.96-18.31 31.96 0 28.95 0 28.95-35.01 31.96-35.01 31.96-22.9Q32.98-24.12 34.42-24.8 35.86-25.49 37.55-25.49L37.55-25.49 38.3-25.49Q39.82-25.49 41.16-24.91 42.5-24.34 43.5-23.34 44.5-22.34 45.08-21 45.65-19.65 45.65-18.14L45.65-18.14 45.65 0ZM62.01-22.14L59-22.14Q58.1-22.14 57.31-21.8 56.51-21.46 55.93-20.87 55.34-20.29 55-19.49 54.66-18.7 54.66-17.8L54.66-17.8 54.66 0 51.66 0 51.66-25 52.66-25 54.29-22.46Q55.32-23.85 56.87-24.67 58.42-25.49 60.25-25.49L60.25-25.49 62.01-25.49 62.01-22.14ZM70.26-31.01L66.76-31.01 66.76-35.01 70.26-35.01 70.26-31.01ZM70.01 0L67.01 0 67.01-25 70.01-25 70.01 0ZM93.72 0L92.71 0 91.05-2.54Q90.03-1.15 88.49-0.33 86.95 0.49 85.12 0.49L85.12 0.49 84.37 0.49Q82.85 0.49 81.51-0.09 80.17-0.66 79.16-1.66 78.16-2.66 77.59-4 77.02-5.35 77.02-6.86L77.02-6.86 77.02-18.14Q77.02-19.65 77.59-21 78.16-22.34 79.16-23.34 80.17-24.34 81.51-24.91 82.85-25.49 84.37-25.49L84.37-25.49 85.12-25.49Q86.81-25.49 88.25-24.8 89.69-24.12 90.71-22.9L90.71-22.9 90.71-35.01 93.72-35.01 93.72 0ZM90.71-6.69L90.71-18.31Q90.71-19.21 90.37-20.01 90.03-20.8 89.44-21.39 88.86-21.97 88.06-22.31 87.27-22.66 86.37-22.66L86.37-22.66 84.37-22.66Q83.46-22.66 82.67-22.31 81.87-21.97 81.29-21.39 80.7-20.8 80.36-20.01 80.02-19.21 80.02-18.31L80.02-18.31 80.02-6.69Q80.02-5.79 80.36-4.99 80.7-4.2 81.29-3.61 81.87-3.03 82.67-2.69 83.46-2.34 84.37-2.34L84.37-2.34 86.37-2.34Q87.27-2.34 88.06-2.69 88.86-3.03 89.44-3.61 90.03-4.2 90.37-4.99 90.71-5.79 90.71-6.69L90.71-6.69ZM116.42 0L113.42 0 113.42-18.31Q113.42-19.21 113.07-20.01 112.73-20.8 112.15-21.39 111.56-21.97 110.77-22.31 109.97-22.66 109.07-22.66L109.07-22.66 107.07-22.66Q106.16-22.66 105.37-22.31 104.58-21.97 103.99-21.39 103.41-20.8 103.06-20.01 102.72-19.21 102.72-18.31L102.72-18.31 102.72 0 99.72 0 99.72-35.01 102.72-35.01 102.72-22.9Q103.75-24.12 105.19-24.8 106.63-25.49 108.31-25.49L108.31-25.49 109.07-25.49Q110.58-25.49 111.93-24.91 113.27-24.34 114.27-23.34 115.27-22.34 115.84-21 116.42-19.65 116.42-18.14L116.42-18.14 116.42 0ZM139.12 0L138.12 0 136.46-2.49Q135.43-1.15 133.9-0.33 132.36 0.49 130.53 0.49L130.53 0.49 129.77 0.49Q128.26 0.49 126.91-0.09 125.57-0.66 124.57-1.66 123.57-2.66 123-4 122.42-5.35 122.42-6.86L122.42-6.86 122.42-7.1Q122.42-8.62 123-9.96 123.57-11.3 124.57-12.3 125.57-13.31 126.91-13.88 128.26-14.45 129.77-14.45L129.77-14.45 136.12-14.45 136.12-18.31Q136.12-19.21 135.78-20.01 135.43-20.8 134.85-21.39 134.26-21.97 133.47-22.31 132.68-22.66 131.77-22.66L131.77-22.66 130.01-22.66Q129.11-22.66 128.32-22.31 127.52-21.97 126.94-21.39 126.35-20.8 126.01-20.01 125.67-19.21 125.67-18.31L125.67-18.31 125.67-17.41 122.67-17.9 122.67-18.14Q122.67-19.65 123.24-21 123.81-22.34 124.81-23.34 125.82-24.34 127.16-24.91 128.5-25.49 130.01-25.49L130.01-25.49 131.77-25.49Q133.29-25.49 134.63-24.91 135.97-24.34 136.97-23.34 137.97-22.34 138.55-21 139.12-19.65 139.12-18.14L139.12-18.14 139.12 0ZM136.12-6.69L136.12-12.11 129.77-12.11Q128.87-12.11 128.07-11.77 127.28-11.43 126.69-10.83 126.11-10.23 125.77-9.44 125.42-8.64 125.42-7.74L125.42-7.74 125.42-6.69Q125.42-5.79 125.77-4.99 126.11-4.2 126.69-3.61 127.28-3.03 128.07-2.69 128.87-2.34 129.77-2.34L129.77-2.34 131.77-2.34Q132.68-2.34 133.47-2.69 134.26-3.03 134.85-3.61 135.43-4.2 135.78-4.99 136.12-5.79 136.12-6.69L136.12-6.69ZM155.48-22.14L152.47-22.14Q151.57-22.14 150.78-21.8 149.98-21.46 149.4-20.87 148.81-20.29 148.47-19.49 148.13-18.7 148.13-17.8L148.13-17.8 148.13 0 145.12 0 145.12-25 146.13-25 147.76-22.46Q148.79-23.85 150.34-24.67 151.89-25.49 153.72-25.49L153.72-25.49 155.48-25.49 155.48-22.14ZM192.97 0L189.06 0 175.88-17.5 189.06-35.01 192.97-35.01 179.52-17.5 192.97 0ZM175.12 0L171.97 0 171.97-35.01 175.12-35.01 175.12 0ZM213.67 0L210.67 0 210.67-18.31Q210.67-19.21 210.33-20.01 209.98-20.8 209.4-21.39 208.81-21.97 208.02-22.31 207.23-22.66 206.32-22.66L206.32-22.66 204.32-22.66Q203.42-22.66 202.62-22.31 201.83-21.97 201.24-21.39 200.66-20.8 200.32-20.01 199.98-19.21 199.98-18.31L199.98-18.31 199.98 0 196.97 0 196.97-35.01 199.98-35.01 199.98-22.9Q201-24.12 202.44-24.8 203.88-25.49 205.57-25.49L205.57-25.49 206.32-25.49Q207.84-25.49 209.18-24.91 210.52-24.34 211.52-23.34 212.52-22.34 213.1-21 213.67-19.65 213.67-18.14L213.67-18.14 213.67 0ZM236.37 0L235.37 0 233.71-2.49Q232.69-1.15 231.15-0.33 229.61 0.49 227.78 0.49L227.78 0.49 227.02 0.49Q225.51 0.49 224.17-0.09 222.82-0.66 221.82-1.66 220.82-2.66 220.25-4 219.67-5.35 219.67-6.86L219.67-6.86 219.67-7.1Q219.67-8.62 220.25-9.96 220.82-11.3 221.82-12.3 222.82-13.31 224.17-13.88 225.51-14.45 227.02-14.45L227.02-14.45 233.37-14.45 233.37-18.31Q233.37-19.21 233.03-20.01 232.69-20.8 232.1-21.39 231.52-21.97 230.72-22.31 229.93-22.66 229.03-22.66L229.03-22.66 227.27-22.66Q226.36-22.66 225.57-22.31 224.78-21.97 224.19-21.39 223.61-20.8 223.26-20.01 222.92-19.21 222.92-18.31L222.92-18.31 222.92-17.41 219.92-17.9 219.92-18.14Q219.92-19.65 220.49-21 221.07-22.34 222.07-23.34 223.07-24.34 224.41-24.91 225.75-25.49 227.27-25.49L227.27-25.49 229.03-25.49Q230.54-25.49 231.88-24.91 233.22-24.34 234.23-23.34 235.23-22.34 235.8-21 236.37-19.65 236.37-18.14L236.37-18.14 236.37 0ZM233.37-6.69L233.37-12.11 227.02-12.11Q226.12-12.11 225.33-11.77 224.53-11.43 223.95-10.83 223.36-10.23 223.02-9.44 222.68-8.64 222.68-7.74L222.68-7.74 222.68-6.69Q222.68-5.79 223.02-4.99 223.36-4.2 223.95-3.61 224.53-3.03 225.33-2.69 226.12-2.34 227.02-2.34L227.02-2.34 229.03-2.34Q229.93-2.34 230.72-2.69 231.52-3.03 232.1-3.61 232.69-4.2 233.03-4.99 233.37-5.79 233.37-6.69L233.37-6.69ZM259.08 0L256.07 0 256.07-18.31Q256.07-19.21 255.73-20.01 255.39-20.8 254.8-21.39 254.22-21.97 253.42-22.31 252.63-22.66 251.73-22.66L251.73-22.66 249.73-22.66Q248.82-22.66 248.03-22.31 247.24-21.97 246.65-21.39 246.06-20.8 245.72-20.01 245.38-19.21 245.38-18.31L245.38-18.31 245.38 0 242.38 0 242.38-25 243.38-25 245.01-22.46Q246.04-23.85 247.59-24.67 249.14-25.49 250.97-25.49L250.97-25.49 251.73-25.49Q253.24-25.49 254.58-24.91 255.93-24.34 256.93-23.34 257.93-22.34 258.5-21 259.08-19.65 259.08-18.14L259.08-18.14 259.08 0ZM281.78 0L280.78 0 279.12-2.49Q278.09-1.15 276.55-0.33 275.02 0.49 273.19 0.49L273.19 0.49 272.43 0.49Q270.91 0.49 269.57-0.09 268.23-0.66 267.23-1.66 266.23-2.66 265.65-4 265.08-5.35 265.08-6.86L265.08-6.86 265.08-7.1Q265.08-8.62 265.65-9.96 266.23-11.3 267.23-12.3 268.23-13.31 269.57-13.88 270.91-14.45 272.43-14.45L272.43-14.45 278.78-14.45 278.78-18.31Q278.78-19.21 278.43-20.01 278.09-20.8 277.51-21.39 276.92-21.97 276.13-22.31 275.33-22.66 274.43-22.66L274.43-22.66 272.67-22.66Q271.77-22.66 270.98-22.31 270.18-21.97 269.6-21.39 269.01-20.8 268.67-20.01 268.33-19.21 268.33-18.31L268.33-18.31 268.33-17.41 265.32-17.9 265.32-18.14Q265.32-19.65 265.9-21 266.47-22.34 267.47-23.34 268.47-24.34 269.82-24.91 271.16-25.49 272.67-25.49L272.67-25.49 274.43-25.49Q275.94-25.49 277.29-24.91 278.63-24.34 279.63-23.34 280.63-22.34 281.21-21 281.78-19.65 281.78-18.14L281.78-18.14 281.78 0ZM278.78-6.69L278.78-12.11 272.43-12.11Q271.53-12.11 270.73-11.77 269.94-11.43 269.35-10.83 268.77-10.23 268.42-9.44 268.08-8.64 268.08-7.74L268.08-7.74 268.08-6.69Q268.08-5.79 268.42-4.99 268.77-4.2 269.35-3.61 269.94-3.03 270.73-2.69 271.53-2.34 272.43-2.34L272.43-2.34 274.43-2.34Q275.33-2.34 276.13-2.69 276.92-3.03 277.51-3.61 278.09-4.2 278.43-4.99 278.78-5.79 278.78-6.69L278.78-6.69ZM291.79 0L288.78 0 288.78-35.01 291.79-35.01 291.79 0Z" opacity="1" transform="matrix(1,0,0,1,0,0)" fill="black" class="wordmark-text-0" id="SvgjsPath1094"></path></svg></g></svg></g></svg></g></svg></g><g></g></svg></g></svg></g></svg></g><g><path d="M77.618 101.182A122.216 122.216 0 0 1 317.902 101.182L315.156 101.182A119.469 119.469 0 0 0 80.364 101.182L77.618 101.182M77.618 146.018A122.216 122.216 0 0 0 317.902 146.018L315.156 146.018A119.469 119.469 0 0 1 80.364 146.018L77.618 146.018" fill="black" stroke="transparent"></path></g></svg></g><defs><mask></mask></defs></svg><rect width="395.52" height="247.2" fill="black" stroke="none" visibility="hidden"></rect></g></mask></svg><rect width="395.52" height="247.2" fill="black" stroke="none" visibility="hidden"></rect></g></mask><linearGradient x1="0.054" x2="0.941" y1="0.5" y2="0.5" id="b9d7d5b1-9d79-46ec-98d5-9a044c1830ae"><stop stop-color="#26282a" offset="0"></stop><stop stop-color="#9e9fa0" offset="0.498"></stop><stop stop-color="#26282a" offset="1"></stop></linearGradient></svg><rect width="395.52" height="247.2" fill="none" stroke="none" visibility="hidden"></rect></g></svg></g></svg>